<svg xmlns="http://www.w3.org/2000/svg" fill="none" viewBox="4.9 0.46 410.74 108.5">
<g filter="url(#filter0_dd_15_10)">
<path d="M82.336 19.368C80.672 20.008 78.624 20.264 76.448 20.264C69.664 20.264 60.832 17.96 51.872 17.96C44.96 17.96 38.048 19.24 31.904 24.232C27.168 28.072 24.736 34.088 24.736 39.72C24.736 43.56 25.888 47.272 28.064 50.088C12.832 51.88 4.896 62.632 4.896 73.768C4.896 75.176 5.024 76.456 5.28 77.864C7.968 92.328 19.872 99.624 32.032 99.624C41.248 99.624 50.72 95.4 56.48 87.208C59.296 83.368 61.344 78.632 63.008 73.64C63.776 71.336 64.928 67.496 67.36 67.112C67.872 66.984 68.256 66.984 68.64 66.984C70.816 66.984 71.712 68.392 71.712 71.848C71.712 73.64 71.456 76.072 71.072 79.016C70.816 81.192 70.688 83.368 70.688 85.544C70.688 91.688 71.84 97.704 74.656 101.8C77.472 105.768 82.72 108.328 87.712 108.328C93.856 108.328 99.744 104.616 102.432 98.088C103.328 95.912 103.712 93.736 103.712 91.816C103.712 88.872 102.816 86.568 100.64 85.672C100.256 88.36 97.184 90.152 94.112 90.152C93.6 90.152 93.088 90.152 92.576 90.024C85.92 88.488 86.176 77.224 84.768 71.976C83.104 65.96 79.776 61.48 70.688 61.096V60.84H71.072C92.064 60.84 97.824 42.024 103.584 30.76C106.528 25.256 110.624 22.952 114.208 22.952C117.024 22.952 119.456 24.36 120.736 26.536C122.784 24.744 123.68 22.184 123.68 19.496C123.68 13.736 119.2 7.46399 110.88 7.46399C110.112 7.46399 109.216 7.46399 108.32 7.59199C98.336 8.99998 92.96 16.168 88.864 27.048C84 40.104 80.672 55.336 69.024 55.336H68C71.584 41.384 76.192 27.176 82.592 27.176C82.848 27.176 83.232 27.304 83.488 27.304H83.872C85.408 27.304 86.048 25.512 86.048 23.592C86.048 21.416 85.152 19.112 83.36 19.112C82.976 19.112 82.72 19.24 82.336 19.368ZM56.992 50.728C51.872 62.888 47.392 75.176 38.688 79.016C37.408 79.528 36.256 79.784 35.104 79.784C31.136 79.784 28.576 76.456 28.576 73.384C28.576 72.744 28.704 72.104 28.96 71.464C30.24 68.776 32.416 67.752 34.464 67.752C37.28 67.752 39.712 69.544 39.712 71.848V72.488C44.064 70.824 45.984 67.368 45.984 63.656C45.984 60.328 44.448 56.744 41.76 54.184C42.4 54.312 42.912 54.312 43.552 54.312C50.336 54.312 56.352 48.68 56.352 43.816C55.456 44.072 54.688 44.2 53.92 44.2C50.464 44.2 48.288 41.512 48.288 38.056C48.288 35.624 49.312 32.808 52 30.376C55.584 26.92 61.984 25.64 71.84 25.64H74.528C65.056 28.584 61.344 40.488 56.992 50.728Z" fill="#84535C"/>
<path d="M105.648 64.552C106.288 65.96 107.44 66.6 108.848 66.6C111.792 66.6 115.76 63.656 117.936 58.408C118.704 56.488 119.088 54.696 119.088 53.032C119.088 47.784 114.992 44.84 110.128 44.84C107.952 44.84 105.52 45.48 103.344 46.76C97.072 50.472 91.952 61.096 91.952 70.056C91.952 74.024 92.976 77.608 95.28 80.296C97.2 82.472 99.76 83.624 102.576 83.624C106.288 83.624 110.384 81.576 113.84 77.224C117.168 73.128 121.008 65.448 122.544 60.968C122.544 60.84 122.672 60.584 122.672 60.456C122.672 59.56 121.648 59.048 120.88 59.048C120.368 59.048 119.984 59.176 119.856 59.56C117.552 65.064 112.432 69.16 108.976 69.16H108.464C106.544 68.904 105.264 67.24 105.264 65.192V64.424C105.264 64.296 105.392 64.296 105.392 64.296C105.52 64.296 105.52 64.424 105.648 64.552ZM111.92 50.472C112.176 50.472 112.304 50.6 112.304 50.856C112.304 52.392 108.464 57.896 107.696 57.896C107.568 57.896 107.568 57.768 107.568 57.64C107.568 56.232 110.256 50.856 111.792 50.472H111.92Z" fill="#84535C"/>
<path d="M134.86 50.984C134.988 50.6 135.116 50.216 135.116 49.832C135.116 46.888 131.532 44.968 128.46 44.968C126.54 44.968 124.748 45.736 123.98 47.528C120.524 55.848 115.788 69.928 113.612 76.328C113.484 76.84 113.356 77.352 113.356 77.864C113.356 80.296 115.276 82.216 117.836 83.112C118.732 83.496 119.884 83.624 120.908 83.624C123.468 83.624 125.9 82.6 126.796 80.168C127.948 77.096 136.652 52.904 138.956 52.904H139.084C139.212 52.904 139.212 53.16 139.212 53.416C139.212 56.616 131.532 73.512 131.404 76.968V77.224C131.404 81.32 134.732 83.752 138.188 83.752C140.236 83.752 142.54 82.856 143.948 80.808C147.02 76.584 152.78 64.68 154.7 60.584C154.828 60.328 154.828 60.2 154.828 59.944C154.828 59.048 153.932 58.536 153.036 58.536C152.652 58.536 152.14 58.664 152.012 59.176C151.244 60.968 147.404 68.136 146.38 68.136C146.252 68.136 146.252 68.008 146.252 67.752C146.252 66.088 148.94 59.688 150.476 54.568C150.732 53.544 150.86 52.648 150.86 51.88C150.86 47.4 147.148 45.096 143.436 45.096C141.132 45.096 138.956 45.992 137.548 47.912C136.268 49.704 134.988 52.52 133.836 54.44C133.836 54.568 133.708 54.568 133.708 54.568C133.58 54.568 133.58 54.44 133.58 54.312C133.964 53.544 134.476 52.008 134.86 50.984Z" fill="#84535C"/>
<path d="M160.204 47.4C155.596 51.112 152.396 56.872 150.476 61.992C149.452 64.936 148.812 67.752 148.812 70.312C148.812 77.352 152.652 82.728 160.588 83.752C161.356 83.88 162.252 83.88 163.02 83.88C171.596 83.88 177.1 77.608 177.1 70.568C177.1 69.032 176.716 67.368 176.204 65.832C174.668 61.224 171.084 58.28 170.316 54.184C170.316 53.928 170.188 53.544 170.188 53.288C170.188 51.752 171.084 50.984 171.98 50.984C173.004 50.984 174.028 51.88 174.028 53.672C174.028 54.696 173.644 56.104 172.876 57.64C173.772 58.28 174.924 58.664 176.204 58.664C179.148 58.664 182.22 56.616 182.22 52.776C182.22 52.392 182.22 51.88 182.092 51.496C181.324 46.376 176.716 43.432 171.34 43.432C167.756 43.432 163.66 44.712 160.204 47.4ZM154.956 67.112C154.828 66.472 154.7 65.704 154.7 64.936C154.7 61.48 155.98 57.512 157.9 55.336C157.772 56.104 157.772 56.872 157.772 57.512C157.772 60.072 158.412 62.248 159.308 64.296C159.82 65.32 159.948 66.344 159.948 67.112C159.948 69.032 158.796 70.184 157.644 70.184C156.492 70.184 155.34 69.16 154.956 67.112Z" fill="#84535C"/>
<path d="M186.108 46.76C184.188 51.112 177.788 67.624 176.508 75.432C176.38 75.944 176.38 76.456 176.38 76.968C176.38 81.448 179.836 83.752 183.548 83.752C185.98 83.752 188.412 82.728 189.948 80.552C193.276 75.56 197.628 65.192 199.42 60.456C199.548 60.328 199.548 60.072 199.548 59.944C199.548 59.048 198.652 58.536 197.756 58.536C197.244 58.536 196.86 58.664 196.604 59.176C195.836 60.968 192.892 68.136 191.612 68.136H191.484C191.356 68.136 191.356 68.008 191.356 67.752C191.356 65.704 195.068 55.592 196.86 50.472C196.988 49.96 197.116 49.576 197.116 49.064C197.116 47.4 195.964 45.864 194.172 45.096C198.012 44.968 201.468 39.208 202.748 35.624C202.876 35.368 202.876 35.24 202.876 34.984C202.876 32.68 198.78 30.504 195.836 30.504C194.556 30.504 193.404 30.888 192.892 31.784C191.868 33.448 190.972 37.032 190.972 40.104C190.972 42.024 191.356 43.816 192.38 44.456C191.74 44.328 191.228 44.2 190.588 44.2C188.796 44.2 187.004 44.968 186.108 46.76Z" fill="#84535C"/>
<path d="M207.773 64.552C208.413 65.96 209.565 66.6 210.973 66.6C213.917 66.6 217.885 63.656 220.061 58.408C220.829 56.488 221.213 54.696 221.213 53.032C221.213 47.784 217.117 44.84 212.253 44.84C210.077 44.84 207.645 45.48 205.469 46.76C199.197 50.472 194.077 61.096 194.077 70.056C194.077 74.024 195.101 77.608 197.405 80.296C199.325 82.472 201.885 83.624 204.701 83.624C208.413 83.624 212.509 81.576 215.965 77.224C219.293 73.128 223.133 65.448 224.669 60.968C224.669 60.84 224.797 60.584 224.797 60.456C224.797 59.56 223.773 59.048 223.005 59.048C222.493 59.048 222.109 59.176 221.981 59.56C219.677 65.064 214.557 69.16 211.101 69.16H210.589C208.669 68.904 207.389 67.24 207.389 65.192V64.424C207.389 64.296 207.517 64.296 207.517 64.296C207.645 64.296 207.645 64.424 207.773 64.552ZM214.045 50.472C214.301 50.472 214.429 50.6 214.429 50.856C214.429 52.392 210.589 57.896 209.821 57.896C209.693 57.896 209.693 57.768 209.693 57.64C209.693 56.232 212.381 50.856 213.917 50.472H214.045Z" fill="#84535C"/>
<path d="M281.1 15.912C271.756 18.728 267.276 25.896 266.892 32.68V33.32C266.892 39.208 270.22 44.712 276.364 46.76C277.516 47.144 279.052 47.4 280.588 47.4C285.836 47.4 292.108 45.096 294.028 40.104H293.132C289.292 40.104 286.348 36.904 286.348 33.32V33.064C286.476 30.248 288.396 27.304 293.004 25.512C295.82 24.36 299.916 24.104 304.652 24.104C307.724 24.104 311.18 24.232 314.764 24.232H316.94C298.508 31.912 293.388 78.376 276.748 86.44C275.34 87.208 274.06 87.464 272.78 87.464C268.812 87.464 265.996 84.008 265.996 80.424V80.168C265.996 79.272 266.252 78.248 266.636 77.352C268.044 74.536 270.348 73.256 272.652 73.256C275.468 73.256 278.284 75.304 278.284 78.888C281.868 77.736 284.684 72.744 284.94 67.752V66.984C284.94 64.808 284.428 62.76 283.276 60.968C280.204 56.104 274.572 53.8 268.684 53.8C264.972 53.8 261.26 54.696 258.06 56.232C247.948 61.096 242.572 71.208 242.06 81.32V82.6C242.06 88.232 243.596 93.736 246.668 98.216C251.66 105.512 259.596 108.968 267.916 108.968C277.516 108.968 287.628 104.36 294.028 95.784C306.444 79.144 309.004 53.544 316.94 37.16C320.524 29.864 324.748 24.872 330.636 24.36C332.684 24.104 333.58 22.312 333.708 20.52C333.708 18.088 332.556 15.656 330.764 15.656C330.252 15.656 329.868 15.784 329.356 16.04C326.924 17.448 324.236 17.96 321.036 17.96C312.844 17.96 302.22 14.376 291.724 14.376C288.14 14.376 284.556 14.76 281.1 15.912Z" fill="#84535C"/>
<path d="M351.016 50.344C350.504 47.144 347.176 45.096 343.848 45.096C341.16 45.096 338.344 46.376 336.808 49.32C335.272 46.248 332.072 44.968 329.128 44.968C328.104 44.968 327.08 45.096 326.184 45.352C316.968 48.168 310.184 62.888 310.184 72.872C310.184 77.864 311.848 81.704 315.688 82.472C316.2 82.6 316.84 82.6 317.352 82.6C325.032 82.6 328.36 70.568 331.048 65.448C331.176 65.32 331.304 65.32 331.304 65.32C331.432 65.32 331.56 65.32 331.56 65.448V65.576C330.152 69.16 329.384 72.104 329 74.536C328.872 75.176 328.872 75.816 328.872 76.328C328.872 80.68 331.688 83.24 335.144 83.24C337.576 83.24 340.136 81.96 342.184 79.272C345.896 74.28 350.376 63.912 351.656 60.712C351.784 60.584 351.784 60.328 351.784 60.2C351.784 59.432 350.888 58.792 349.992 58.792C349.608 58.792 349.096 59.048 348.84 59.432C347.816 61.224 344.744 66.728 343.464 68.136C343.208 68.392 343.08 68.52 342.824 68.52C342.312 68.52 342.056 68.008 342.056 67.368V66.984C343.336 62.632 347.944 51.496 351.016 50.344ZM325.8 63.016C325.672 63.016 325.672 62.888 325.672 62.76C325.672 60.84 329.896 50.856 331.688 50.856C331.816 50.856 331.816 50.984 331.944 50.984C332.072 50.984 332.072 51.112 332.072 51.368C332.072 53.416 327.08 63.016 325.928 63.016H325.8Z" fill="#84535C"/>
<path d="M363.476 64.296C364.244 64.808 365.14 64.936 365.908 64.936C370.004 64.936 373.588 59.56 373.972 54.44V53.8C373.972 47.912 369.364 44.968 364.244 44.968C361.172 44.968 358.1 45.992 355.54 48.04C350.164 52.648 346.708 61.352 346.708 68.776C346.708 75.304 349.14 81.832 354.644 83.368C355.54 83.624 356.436 83.752 357.332 83.752C363.476 83.624 368.468 77.608 371.924 71.976C374.612 67.624 376.788 62.504 377.684 60.328C377.684 60.2 377.812 60.072 377.812 59.944C377.812 59.304 376.788 58.664 375.892 58.664C375.508 58.664 374.996 58.92 374.868 59.304C373.972 61.864 370.004 67.88 364.756 68.392C364.116 68.392 363.476 68.264 362.836 68.008C360.788 67.112 359.764 64.424 359.764 61.608C359.764 58.28 361.3 54.312 364.372 52.392C364.756 52.136 365.524 51.88 366.036 51.88C366.932 51.88 367.572 52.264 367.572 53.416V53.544C367.188 53.416 366.932 53.416 366.548 53.416C363.732 53.416 361.556 57.256 361.556 60.456C361.556 61.992 362.196 63.528 363.476 64.296Z" fill="#84535C"/>
<path d="M401.767 38.184C402.023 37.544 402.023 36.904 402.023 36.392C402.023 32.424 397.927 28.84 393.447 28.84C391.143 28.84 388.839 29.736 386.919 32.168C380.903 39.848 371.687 66.856 368.487 77.608C368.359 77.992 368.359 78.376 368.359 78.632C368.359 81.064 370.407 82.984 373.095 83.496C373.735 83.624 374.375 83.752 375.015 83.752C377.447 83.752 380.007 82.856 380.647 80.424C380.903 79.144 381.671 76.456 382.311 74.024C382.951 79.656 385.767 83.24 389.863 83.24H390.503C396.775 82.728 401.511 71.336 401.511 67.112C401.511 66.344 401.383 65.832 400.999 65.704C398.055 68.904 394.471 69.8 391.527 69.8C389.991 69.8 388.711 69.544 387.815 69.16C394.599 69.16 400.359 65.064 403.943 60.072C405.863 57.384 406.631 54.824 406.631 52.648C406.631 48.04 403.047 45.096 399.207 45.096C397.159 45.096 395.111 45.864 393.447 47.656C392.039 49.32 390.759 51.624 389.095 54.44C389.095 54.568 388.967 54.568 388.967 54.568C388.839 54.568 388.839 54.44 388.839 54.312C390.631 49.832 395.239 39.208 401.767 38.184ZM395.367 53.416C395.495 53.416 395.623 53.672 395.623 53.8C395.623 55.464 391.271 60.584 389.991 60.584C389.735 60.584 389.735 60.456 389.735 60.2C389.735 58.792 393.447 53.416 395.111 53.416H395.367Z" fill="#84535C"/>
<path d="M91.336 12.368C89.672 13.008 87.624 13.264 85.448 13.264C78.664 13.264 69.832 10.96 60.872 10.96C53.96 10.96 47.048 12.24 40.904 17.232C36.168 21.072 33.736 27.088 33.736 32.72C33.736 36.56 34.888 40.272 37.064 43.088C21.832 44.88 13.896 55.632 13.896 66.768C13.896 68.176 14.024 69.456 14.28 70.864C16.968 85.328 28.872 92.624 41.032 92.624C50.248 92.624 59.72 88.4 65.48 80.208C68.296 76.368 70.344 71.632 72.008 66.64C72.776 64.336 73.928 60.496 76.36 60.112C76.872 59.984 77.256 59.984 77.64 59.984C79.816 59.984 80.712 61.392 80.712 64.848C80.712 66.64 80.456 69.072 80.072 72.016C79.816 74.192 79.688 76.368 79.688 78.544C79.688 84.688 80.84 90.704 83.656 94.8C86.472 98.768 91.72 101.328 96.712 101.328C102.856 101.328 108.744 97.616 111.432 91.088C112.328 88.912 112.712 86.736 112.712 84.816C112.712 81.872 111.816 79.568 109.64 78.672C109.256 81.36 106.184 83.152 103.112 83.152C102.6 83.152 102.088 83.152 101.576 83.024C94.92 81.488 95.176 70.224 93.768 64.976C92.104 58.96 88.776 54.48 79.688 54.096V53.84H80.072C101.064 53.84 106.824 35.024 112.584 23.76C115.528 18.256 119.624 15.952 123.208 15.952C126.024 15.952 128.456 17.36 129.736 19.536C131.784 17.744 132.68 15.184 132.68 12.496C132.68 6.73598 128.2 0.463989 119.88 0.463989C119.112 0.463989 118.216 0.463989 117.32 0.591988C107.336 1.99998 101.96 9.16799 97.864 20.048C93 33.104 89.672 48.336 78.024 48.336H77C80.584 34.384 85.192 20.176 91.592 20.176C91.848 20.176 92.232 20.304 92.488 20.304H92.872C94.408 20.304 95.048 18.512 95.048 16.592C95.048 14.416 94.152 12.112 92.36 12.112C91.976 12.112 91.72 12.24 91.336 12.368ZM65.992 43.728C60.872 55.888 56.392 68.176 47.688 72.016C46.408 72.528 45.256 72.784 44.104 72.784C40.136 72.784 37.576 69.456 37.576 66.384C37.576 65.744 37.704 65.104 37.96 64.464C39.24 61.776 41.416 60.752 43.464 60.752C46.28 60.752 48.712 62.544 48.712 64.848V65.488C53.064 63.824 54.984 60.368 54.984 56.656C54.984 53.328 53.448 49.744 50.76 47.184C51.4 47.312 51.912 47.312 52.552 47.312C59.336 47.312 65.352 41.68 65.352 36.816C64.456 37.072 63.688 37.2 62.92 37.2C59.464 37.2 57.288 34.512 57.288 31.056C57.288 28.624 58.312 25.808 61 23.376C64.584 19.92 70.984 18.64 80.84 18.64H83.528C74.056 21.584 70.344 33.488 65.992 43.728Z" fill="#C0FFFB"/>
<path d="M114.648 57.552C115.288 58.96 116.44 59.6 117.848 59.6C120.792 59.6 124.76 56.656 126.936 51.408C127.704 49.488 128.088 47.696 128.088 46.032C128.088 40.784 123.992 37.84 119.128 37.84C116.952 37.84 114.52 38.48 112.344 39.76C106.072 43.472 100.952 54.096 100.952 63.056C100.952 67.024 101.976 70.608 104.28 73.296C106.2 75.472 108.76 76.624 111.576 76.624C115.288 76.624 119.384 74.576 122.84 70.224C126.168 66.128 130.008 58.448 131.544 53.968C131.544 53.84 131.672 53.584 131.672 53.456C131.672 52.56 130.648 52.048 129.88 52.048C129.368 52.048 128.984 52.176 128.856 52.56C126.552 58.064 121.432 62.16 117.976 62.16H117.464C115.544 61.904 114.264 60.24 114.264 58.192V57.424C114.264 57.296 114.392 57.296 114.392 57.296C114.52 57.296 114.52 57.424 114.648 57.552ZM120.92 43.472C121.176 43.472 121.304 43.6 121.304 43.856C121.304 45.392 117.464 50.896 116.696 50.896C116.568 50.896 116.568 50.768 116.568 50.64C116.568 49.232 119.256 43.856 120.792 43.472H120.92Z" fill="#C0FFFB"/>
<path d="M143.86 43.984C143.988 43.6 144.116 43.216 144.116 42.832C144.116 39.888 140.532 37.968 137.46 37.968C135.54 37.968 133.748 38.736 132.98 40.528C129.524 48.848 124.788 62.928 122.612 69.328C122.484 69.84 122.356 70.352 122.356 70.864C122.356 73.296 124.276 75.216 126.836 76.112C127.732 76.496 128.884 76.624 129.908 76.624C132.468 76.624 134.9 75.6 135.796 73.168C136.948 70.096 145.652 45.904 147.956 45.904H148.084C148.212 45.904 148.212 46.16 148.212 46.416C148.212 49.616 140.532 66.512 140.404 69.968V70.224C140.404 74.32 143.732 76.752 147.188 76.752C149.236 76.752 151.54 75.856 152.948 73.808C156.02 69.584 161.78 57.68 163.7 53.584C163.828 53.328 163.828 53.2 163.828 52.944C163.828 52.048 162.932 51.536 162.036 51.536C161.652 51.536 161.14 51.664 161.012 52.176C160.244 53.968 156.404 61.136 155.38 61.136C155.252 61.136 155.252 61.008 155.252 60.752C155.252 59.088 157.94 52.688 159.476 47.568C159.732 46.544 159.86 45.648 159.86 44.88C159.86 40.4 156.148 38.096 152.436 38.096C150.132 38.096 147.956 38.992 146.548 40.912C145.268 42.704 143.988 45.52 142.836 47.44C142.836 47.568 142.708 47.568 142.708 47.568C142.58 47.568 142.58 47.44 142.58 47.312C142.964 46.544 143.476 45.008 143.86 43.984Z" fill="#C0FFFB"/>
<path d="M169.204 40.4C164.596 44.112 161.396 49.872 159.476 54.992C158.452 57.936 157.812 60.752 157.812 63.312C157.812 70.352 161.652 75.728 169.588 76.752C170.356 76.88 171.252 76.88 172.02 76.88C180.596 76.88 186.1 70.608 186.1 63.568C186.1 62.032 185.716 60.368 185.204 58.832C183.668 54.224 180.084 51.28 179.316 47.184C179.316 46.928 179.188 46.544 179.188 46.288C179.188 44.752 180.084 43.984 180.98 43.984C182.004 43.984 183.028 44.88 183.028 46.672C183.028 47.696 182.644 49.104 181.876 50.64C182.772 51.28 183.924 51.664 185.204 51.664C188.148 51.664 191.22 49.616 191.22 45.776C191.22 45.392 191.22 44.88 191.092 44.496C190.324 39.376 185.716 36.432 180.34 36.432C176.756 36.432 172.66 37.712 169.204 40.4ZM163.956 60.112C163.828 59.472 163.7 58.704 163.7 57.936C163.7 54.48 164.98 50.512 166.9 48.336C166.772 49.104 166.772 49.872 166.772 50.512C166.772 53.072 167.412 55.248 168.308 57.296C168.82 58.32 168.948 59.344 168.948 60.112C168.948 62.032 167.796 63.184 166.644 63.184C165.492 63.184 164.34 62.16 163.956 60.112Z" fill="#C0FFFB"/>
<path d="M195.108 39.76C193.188 44.112 186.788 60.624 185.508 68.432C185.38 68.944 185.38 69.456 185.38 69.968C185.38 74.448 188.836 76.752 192.548 76.752C194.98 76.752 197.412 75.728 198.948 73.552C202.276 68.56 206.628 58.192 208.42 53.456C208.548 53.328 208.548 53.072 208.548 52.944C208.548 52.048 207.652 51.536 206.756 51.536C206.244 51.536 205.86 51.664 205.604 52.176C204.836 53.968 201.892 61.136 200.612 61.136H200.484C200.356 61.136 200.356 61.008 200.356 60.752C200.356 58.704 204.068 48.592 205.86 43.472C205.988 42.96 206.116 42.576 206.116 42.064C206.116 40.4 204.964 38.864 203.172 38.096C207.012 37.968 210.468 32.208 211.748 28.624C211.876 28.368 211.876 28.24 211.876 27.984C211.876 25.68 207.78 23.504 204.836 23.504C203.556 23.504 202.404 23.888 201.892 24.784C200.868 26.448 199.972 30.032 199.972 33.104C199.972 35.024 200.356 36.816 201.38 37.456C200.74 37.328 200.228 37.2 199.588 37.2C197.796 37.2 196.004 37.968 195.108 39.76Z" fill="#C0FFFB"/>
<path d="M216.773 57.552C217.413 58.96 218.565 59.6 219.973 59.6C222.917 59.6 226.885 56.656 229.061 51.408C229.829 49.488 230.213 47.696 230.213 46.032C230.213 40.784 226.117 37.84 221.253 37.84C219.077 37.84 216.645 38.48 214.469 39.76C208.197 43.472 203.077 54.096 203.077 63.056C203.077 67.024 204.101 70.608 206.405 73.296C208.325 75.472 210.885 76.624 213.701 76.624C217.413 76.624 221.509 74.576 224.965 70.224C228.293 66.128 232.133 58.448 233.669 53.968C233.669 53.84 233.797 53.584 233.797 53.456C233.797 52.56 232.773 52.048 232.005 52.048C231.493 52.048 231.109 52.176 230.981 52.56C228.677 58.064 223.557 62.16 220.101 62.16H219.589C217.669 61.904 216.389 60.24 216.389 58.192V57.424C216.389 57.296 216.517 57.296 216.517 57.296C216.645 57.296 216.645 57.424 216.773 57.552ZM223.045 43.472C223.301 43.472 223.429 43.6 223.429 43.856C223.429 45.392 219.589 50.896 218.821 50.896C218.693 50.896 218.693 50.768 218.693 50.64C218.693 49.232 221.381 43.856 222.917 43.472H223.045Z" fill="#C0FFFB"/>
<path d="M290.1 8.91199C280.756 11.728 276.276 18.896 275.892 25.68V26.32C275.892 32.208 279.22 37.712 285.364 39.76C286.516 40.144 288.052 40.4 289.588 40.4C294.836 40.4 301.108 38.096 303.028 33.104H302.132C298.292 33.104 295.348 29.904 295.348 26.32V26.064C295.476 23.248 297.396 20.304 302.004 18.512C304.82 17.36 308.916 17.104 313.652 17.104C316.724 17.104 320.18 17.232 323.764 17.232H325.94C307.508 24.912 302.388 71.376 285.748 79.44C284.34 80.208 283.06 80.464 281.78 80.464C277.812 80.464 274.996 77.008 274.996 73.424V73.168C274.996 72.272 275.252 71.248 275.636 70.352C277.044 67.536 279.348 66.256 281.652 66.256C284.468 66.256 287.284 68.304 287.284 71.888C290.868 70.736 293.684 65.744 293.94 60.752V59.984C293.94 57.808 293.428 55.76 292.276 53.968C289.204 49.104 283.572 46.8 277.684 46.8C273.972 46.8 270.26 47.696 267.06 49.232C256.948 54.096 251.572 64.208 251.06 74.32V75.6C251.06 81.232 252.596 86.736 255.668 91.216C260.66 98.512 268.596 101.968 276.916 101.968C286.516 101.968 296.628 97.36 303.028 88.784C315.444 72.144 318.004 46.544 325.94 30.16C329.524 22.864 333.748 17.872 339.636 17.36C341.684 17.104 342.58 15.312 342.708 13.52C342.708 11.088 341.556 8.65599 339.764 8.65599C339.252 8.65599 338.868 8.78399 338.356 9.03999C335.924 10.448 333.236 10.96 330.036 10.96C321.844 10.96 311.22 7.37599 300.724 7.37599C297.14 7.37599 293.556 7.75999 290.1 8.91199Z" fill="#C0FFFB"/>
<path d="M360.016 43.344C359.504 40.144 356.176 38.096 352.848 38.096C350.16 38.096 347.344 39.376 345.808 42.32C344.272 39.248 341.072 37.968 338.128 37.968C337.104 37.968 336.08 38.096 335.184 38.352C325.968 41.168 319.184 55.888 319.184 65.872C319.184 70.864 320.848 74.704 324.688 75.472C325.2 75.6 325.84 75.6 326.352 75.6C334.032 75.6 337.36 63.568 340.048 58.448C340.176 58.32 340.304 58.32 340.304 58.32C340.432 58.32 340.56 58.32 340.56 58.448V58.576C339.152 62.16 338.384 65.104 338 67.536C337.872 68.176 337.872 68.816 337.872 69.328C337.872 73.68 340.688 76.24 344.144 76.24C346.576 76.24 349.136 74.96 351.184 72.272C354.896 67.28 359.376 56.912 360.656 53.712C360.784 53.584 360.784 53.328 360.784 53.2C360.784 52.432 359.888 51.792 358.992 51.792C358.608 51.792 358.096 52.048 357.84 52.432C356.816 54.224 353.744 59.728 352.464 61.136C352.208 61.392 352.08 61.52 351.824 61.52C351.312 61.52 351.056 61.008 351.056 60.368V59.984C352.336 55.632 356.944 44.496 360.016 43.344ZM334.8 56.016C334.672 56.016 334.672 55.888 334.672 55.76C334.672 53.84 338.896 43.856 340.688 43.856C340.816 43.856 340.816 43.984 340.944 43.984C341.072 43.984 341.072 44.112 341.072 44.368C341.072 46.416 336.08 56.016 334.928 56.016H334.8Z" fill="#C0FFFB"/>
<path d="M372.476 57.296C373.244 57.808 374.14 57.936 374.908 57.936C379.004 57.936 382.588 52.56 382.972 47.44V46.8C382.972 40.912 378.364 37.968 373.244 37.968C370.172 37.968 367.1 38.992 364.54 41.04C359.164 45.648 355.708 54.352 355.708 61.776C355.708 68.304 358.14 74.832 363.644 76.368C364.54 76.624 365.436 76.752 366.332 76.752C372.476 76.624 377.468 70.608 380.924 64.976C383.612 60.624 385.788 55.504 386.684 53.328C386.684 53.2 386.812 53.072 386.812 52.944C386.812 52.304 385.788 51.664 384.892 51.664C384.508 51.664 383.996 51.92 383.868 52.304C382.972 54.864 379.004 60.88 373.756 61.392C373.116 61.392 372.476 61.264 371.836 61.008C369.788 60.112 368.764 57.424 368.764 54.608C368.764 51.28 370.3 47.312 373.372 45.392C373.756 45.136 374.524 44.88 375.036 44.88C375.932 44.88 376.572 45.264 376.572 46.416V46.544C376.188 46.416 375.932 46.416 375.548 46.416C372.732 46.416 370.556 50.256 370.556 53.456C370.556 54.992 371.196 56.528 372.476 57.296Z" fill="#C0FFFB"/>
<path d="M410.767 31.184C411.023 30.544 411.023 29.904 411.023 29.392C411.023 25.424 406.927 21.84 402.447 21.84C400.143 21.84 397.839 22.736 395.919 25.168C389.903 32.848 380.687 59.856 377.487 70.608C377.359 70.992 377.359 71.376 377.359 71.632C377.359 74.064 379.407 75.984 382.095 76.496C382.735 76.624 383.375 76.752 384.015 76.752C386.447 76.752 389.007 75.856 389.647 73.424C389.903 72.144 390.671 69.456 391.311 67.024C391.951 72.656 394.767 76.24 398.863 76.24H399.503C405.775 75.728 410.511 64.336 410.511 60.112C410.511 59.344 410.383 58.832 409.999 58.704C407.055 61.904 403.471 62.8 400.527 62.8C398.991 62.8 397.711 62.544 396.815 62.16C403.599 62.16 409.359 58.064 412.943 53.072C414.863 50.384 415.631 47.824 415.631 45.648C415.631 41.04 412.047 38.096 408.207 38.096C406.159 38.096 404.111 38.864 402.447 40.656C401.039 42.32 399.759 44.624 398.095 47.44C398.095 47.568 397.967 47.568 397.967 47.568C397.839 47.568 397.839 47.44 397.839 47.312C399.631 42.832 404.239 32.208 410.767 31.184ZM404.367 46.416C404.495 46.416 404.623 46.672 404.623 46.8C404.623 48.464 400.271 53.584 398.991 53.584C398.735 53.584 398.735 53.456 398.735 53.2C398.735 51.792 402.447 46.416 404.111 46.416H404.367Z" fill="#C0FFFB"/>
</g>
<defs>
<filter id="filter0_dd_15_10" x="0.895996" y="0.463989" width="418.735" height="116.504" filterUnits="userSpaceOnUse" color-interpolation-filters="sRGB">
<feFlood flood-opacity="0" result="BackgroundImageFix"/>
<feColorMatrix in="SourceAlpha" type="matrix" values="0 0 0 0 0 0 0 0 0 0 0 0 0 0 0 0 0 0 127 0" result="hardAlpha"/>
<feOffset dy="4"/>
<feGaussianBlur stdDeviation="2"/>
<feComposite in2="hardAlpha" operator="out"/>
<feColorMatrix type="matrix" values="0 0 0 0 0 0 0 0 0 0 0 0 0 0 0 0 0 0 0.25 0"/>
<feBlend mode="normal" in2="BackgroundImageFix" result="effect1_dropShadow_15_10"/>
<feColorMatrix in="SourceAlpha" type="matrix" values="0 0 0 0 0 0 0 0 0 0 0 0 0 0 0 0 0 0 127 0" result="hardAlpha"/>
<feOffset dy="4"/>
<feGaussianBlur stdDeviation="2"/>
<feComposite in2="hardAlpha" operator="out"/>
<feColorMatrix type="matrix" values="0 0 0 0 0 0 0 0 0 0 0 0 0 0 0 0 0 0 0.25 0"/>
<feBlend mode="normal" in2="effect1_dropShadow_15_10" result="effect2_dropShadow_15_10"/>
<feBlend mode="normal" in="SourceGraphic" in2="effect2_dropShadow_15_10" result="shape"/>
</filter>
</defs>
</svg>